<svg width="21" height="24" viewBox="0 0 21 24" fill="none" xmlns="http://www.w3.org/2000/svg">
<path opacity="0.9" d="M19.2054 4.66561L12.2586 0.481069C11.1741 -0.160356 9.82581 -0.160356 8.7413 0.481069L1.82386 4.66561C0.739343 5.30703 0.0651855 6.52879 0.0651855 7.84219V16.1807C0.0651855 17.4941 0.739343 18.6853 1.82386 19.3573L8.7413 23.5113C9.2689 23.8473 9.88443 24 10.5 24C11.1155 24 11.7017 23.8473 12.2586 23.5113L19.1761 19.3268C20.2606 18.6853 20.9348 17.4636 20.9348 16.1502V7.84219C20.9348 6.52879 20.2606 5.30703 19.2054 4.66561Z" fill="#FFF72E"/>
<g clip-path="url(#clip0_179_8481)">
<path d="M9.34856 15.7593L5.95725 12.3485C5.75351 12.1436 5.75351 11.8113 5.95725 11.6064L6.69508 10.8643C6.89883 10.6594 7.22919 10.6594 7.43294 10.8643L9.71749 13.162L14.6107 8.2406C14.8145 8.03569 15.1448 8.03569 15.3486 8.2406L16.0864 8.9827C16.2902 9.18761 16.2902 9.51986 16.0864 9.72479L10.0864 15.7593C9.88265 15.9642 9.5523 15.9642 9.34856 15.7593Z" fill="#130404"/>
</g>
<defs>
<clipPath id="clip0_179_8481">
<rect width="10.4348" height="10.4348" fill="white" transform="translate(5.80444 6.78271)"/>
</clipPath>
</defs>
</svg>
