<svg width="21" height="21" viewBox="0 0 21 21" fill="none" xmlns="http://www.w3.org/2000/svg">
<g clip-path="url(#clip0_114_25436)">
<path fill-rule="evenodd" clip-rule="evenodd" d="M11.2916 1.85518L13.2056 7.78486C13.2631 7.9626 13.422 8.07822 13.6092 8.07783L19.84 8.06572C20.2498 8.06494 20.4209 8.5915 20.0888 8.83135L15.0408 12.4841C14.8892 12.5938 14.8287 12.7806 14.8869 12.9583L16.8236 18.8806C16.9506 19.2685 16.5021 19.5942 16.1724 19.354L11.1385 15.6817C10.9873 15.5716 10.7908 15.5716 10.64 15.6817L5.60603 19.354C5.27634 19.5946 4.8279 19.2688 4.95486 18.8806L6.89158 12.9583C6.94978 12.7806 6.88884 12.5938 6.73767 12.4841L1.68923 8.83135C1.3572 8.59111 1.5283 8.06494 1.93806 8.06572L8.16892 8.07783C8.35603 8.07822 8.51501 7.9626 8.57244 7.78486L10.4865 1.85518C10.6123 1.46494 11.1654 1.46494 11.2916 1.85518Z" fill="#FFF72E"/>
</g>
<defs>
<clipPath id="clip0_114_25436">
<rect width="20" height="20" fill="white" transform="translate(0.888885 0.5)"/>
</clipPath>
</defs>
</svg>
