<svg width="20" height="21" viewBox="0 0 20 21" fill="none" xmlns="http://www.w3.org/2000/svg">
<path fill-rule="evenodd" clip-rule="evenodd" d="M10.4027 1.85518L12.3168 7.78486C12.3742 7.9626 12.5332 8.07822 12.7203 8.07783L18.9511 8.06572C19.3609 8.06494 19.532 8.5915 19.2 8.83135L14.1519 12.4841C14.0003 12.5938 13.9398 12.7806 13.998 12.9583L15.9347 18.8806C16.0617 19.2685 15.6132 19.5942 15.2836 19.354L10.2496 15.6817C10.0984 15.5716 9.90191 15.5716 9.75113 15.6817L4.71714 19.354C4.38746 19.5946 3.93902 19.2688 4.06597 18.8806L6.00269 12.9583C6.06089 12.7806 5.99996 12.5938 5.84878 12.4841L0.800347 8.83135C0.468316 8.59111 0.63941 8.06494 1.04918 8.06572L7.28003 8.07783C7.46714 8.07822 7.62613 7.9626 7.68355 7.78486L9.59761 1.85518C9.72339 1.46494 10.2765 1.46494 10.4027 1.85518Z" fill="white" fill-opacity="0.3"/>
</svg>
