<svg width="32" height="32" viewBox="0 0 32 32" fill="none" xmlns="http://www.w3.org/2000/svg">
<g clip-path="url(#clip0_136_30031)">
<path d="M4.2666 19.2H3.19995C2.61084 19.2 2.1333 19.6775 2.1333 20.2666V25.5884C2.1333 26.1775 2.61084 26.655 3.19995 26.655H4.2666C4.85571 26.655 5.33325 26.1775 5.33325 25.5884V20.2666C5.33325 19.6775 4.85571 19.2 4.2666 19.2ZM3.19995 25.5884V20.2666H4.2666V25.5884H3.19995Z" fill="white"/>
<path d="M29.3333 13.9146V5.8667C29.3333 4.98291 28.6169 4.2666 27.7334 4.2666H25.6001V2.1333C25.6001 0.955078 24.6448 0 23.4666 0H8.53345C7.35522 0 6.3999 0.955078 6.3999 2.1333V4.2666H4.2666C3.38306 4.2666 2.66675 4.98291 2.66675 5.8667V13.9146C1.12891 14.176 0.00292969 15.5068 0 17.0667V29.8667C0 30.4558 0.477539 30.9333 1.06665 30.9333H8.53345C8.53345 31.5225 9.01099 32 9.6001 32H12.2666C12.8557 32 13.3333 31.5225 13.3333 30.9333H18.6667C18.6667 31.5225 19.1443 32 19.7334 32H22.3999C22.989 32 23.4666 31.5225 23.4666 30.9333H30.9333C31.5225 30.9333 32 30.4558 32 29.8667V17.0667C31.9971 15.5068 30.8711 14.176 29.3333 13.9146ZM30.9333 17.0667H25.6001V14.9333H28.8C29.9783 14.9333 30.9333 15.8884 30.9333 17.0667ZM21.8667 27.2H20.2666V17.0667H21.8667V27.2ZM11.7334 27.2H10.1333V17.0667H11.7334V27.2ZM12.8 17.0667H19.2V20.1206C18.3933 19.1968 17.2266 18.6667 16 18.6667C14.7734 18.6667 13.6067 19.1968 12.8 20.1206V17.0667ZM22.3999 16H7.46655V13.3333C7.46655 13.0388 7.70557 12.8 8 12.8H24C24.2944 12.8 24.5334 13.0388 24.5334 13.3333V16H22.3999ZM3.7334 8H6.3999C6.3999 9.17822 7.35522 10.1333 8.53345 10.1333H9.06665V11.7334H8C7.11646 11.7334 6.3999 12.4497 6.3999 13.3333V13.8667H3.7334V8ZM19.7334 10.1333V11.7334H12.2666V10.1333H19.7334ZM23.4666 10.1333C24.6448 10.1333 25.6001 9.17822 25.6001 8H28.2666V13.8667H25.6001V13.3333C25.6001 12.4497 24.8835 11.7334 24 11.7334H22.9333V10.1333H23.4666ZM21.8667 11.7334H20.8V10.1333H21.8667V11.7334ZM11.2 11.7334H10.1333V10.1333H11.2V11.7334ZM27.7334 5.33325C28.0278 5.33325 28.2666 5.57202 28.2666 5.8667V6.93335H25.6001V5.33325H27.7334ZM7.46655 2.1333C7.46655 1.54419 7.94434 1.06665 8.53345 1.06665H23.4666C24.0557 1.06665 24.5334 1.54419 24.5334 2.1333V8C24.5334 8.58911 24.0557 9.06665 23.4666 9.06665H8.53345C7.94434 9.06665 7.46655 8.58911 7.46655 8V2.1333ZM4.2666 5.33325H6.3999V6.93335H3.7334V5.8667C3.7334 5.57202 3.97217 5.33325 4.2666 5.33325ZM3.19995 14.9333H6.3999V17.0667H1.06665C1.06665 15.8884 2.02173 14.9333 3.19995 14.9333ZM1.06665 18.1333H6.3999V29.8667H1.06665V18.1333ZM7.46655 29.8667V17.0667H9.06665V27.3484C8.73779 27.5374 8.53442 27.8872 8.53345 28.2666V29.8667H7.46655ZM9.6001 30.9333V28.2666H12.2666V30.9333H9.6001ZM13.3333 29.8667V28.2666C13.3323 27.8872 13.1289 27.5374 12.8 27.3484V22.9333C12.8 21.166 14.2327 19.7334 16 19.7334C17.7673 19.7334 19.2 21.166 19.2 22.9333V27.3484C18.8711 27.5374 18.6677 27.8872 18.6667 28.2666V29.8667H13.3333ZM19.7334 30.9333V28.2666H22.3999V30.9333H19.7334ZM23.4666 29.8667V28.2666C23.4656 27.8872 23.2622 27.5374 22.9333 27.3484V17.0667H24.5334V29.8667H23.4666ZM25.6001 29.8667V18.1333H30.9333V29.8667H25.6001Z" fill="white"/>
<path d="M28.8 19.2H27.7334C27.1443 19.2 26.6667 19.6775 26.6667 20.2666V25.5884C26.6667 26.1775 27.1443 26.655 27.7334 26.655H28.8C29.3892 26.655 29.8667 26.1775 29.8667 25.5884V20.2666C29.8667 19.6775 29.3892 19.2 28.8 19.2ZM28.8 25.5884H27.7334V20.2666H28.8V25.5884Z" fill="white"/>
<path d="M4.80005 27.7334H2.66675C2.37207 27.7334 2.1333 27.9722 2.1333 28.2666C2.1333 28.5613 2.37207 28.8 2.66675 28.8H4.80005C5.09448 28.8 5.33325 28.5613 5.33325 28.2666C5.33325 27.9722 5.09448 27.7334 4.80005 27.7334Z" fill="white"/>
<path d="M29.3333 27.7334H27.2C26.9055 27.7334 26.6667 27.9722 26.6667 28.2666C26.6667 28.5613 26.9055 28.8 27.2 28.8H29.3333C29.6279 28.8 29.8667 28.5613 29.8667 28.2666C29.8667 27.9722 29.6279 27.7334 29.3333 27.7334Z" fill="white"/>
<path d="M9.06665 3.19995H9.6001C9.89453 3.19995 10.1333 2.96118 10.1333 2.66675C10.1333 2.37207 9.89453 2.1333 9.6001 2.1333H9.06665C8.77222 2.1333 8.53345 2.37207 8.53345 2.66675C8.53345 2.96118 8.77222 3.19995 9.06665 3.19995Z" fill="white"/>
<path d="M11.7334 3.19995H12.2666C12.5613 3.19995 12.8 2.96118 12.8 2.66675C12.8 2.37207 12.5613 2.1333 12.2666 2.1333H11.7334C11.4387 2.1333 11.2 2.37207 11.2 2.66675C11.2 2.96118 11.4387 3.19995 11.7334 3.19995Z" fill="white"/>
<path d="M14.3999 3.19995H14.9333C15.2278 3.19995 15.4666 2.96118 15.4666 2.66675C15.4666 2.37207 15.2278 2.1333 14.9333 2.1333H14.3999C14.1055 2.1333 13.8667 2.37207 13.8667 2.66675C13.8667 2.96118 14.1055 3.19995 14.3999 3.19995Z" fill="white"/>
<path d="M17.0667 3.19995H17.6001C17.8945 3.19995 18.1333 2.96118 18.1333 2.66675C18.1333 2.37207 17.8945 2.1333 17.6001 2.1333H17.0667C16.7722 2.1333 16.5334 2.37207 16.5334 2.66675C16.5334 2.96118 16.7722 3.19995 17.0667 3.19995Z" fill="white"/>
<path d="M19.7334 3.19995H20.2666C20.5613 3.19995 20.8 2.96118 20.8 2.66675C20.8 2.37207 20.5613 2.1333 20.2666 2.1333H19.7334C19.4387 2.1333 19.2 2.37207 19.2 2.66675C19.2 2.96118 19.4387 3.19995 19.7334 3.19995Z" fill="white"/>
<path d="M11.7334 8H12.2666C12.5613 8 12.8 7.76123 12.8 7.46655C12.8 7.17212 12.5613 6.93335 12.2666 6.93335H11.7334C11.4387 6.93335 11.2 7.17212 11.2 7.46655C11.2 7.76123 11.4387 8 11.7334 8Z" fill="white"/>
<path d="M14.3999 8H14.9333C15.2278 8 15.4666 7.76123 15.4666 7.46655C15.4666 7.17212 15.2278 6.93335 14.9333 6.93335H14.3999C14.1055 6.93335 13.8667 7.17212 13.8667 7.46655C13.8667 7.76123 14.1055 8 14.3999 8Z" fill="white"/>
<path d="M17.0667 8H17.6001C17.8945 8 18.1333 7.76123 18.1333 7.46655C18.1333 7.17212 17.8945 6.93335 17.6001 6.93335H17.0667C16.7722 6.93335 16.5334 7.17212 16.5334 7.46655C16.5334 7.76123 16.7722 8 17.0667 8Z" fill="white"/>
<path d="M19.7334 8H20.2666C20.5613 8 20.8 7.76123 20.8 7.46655C20.8 7.17212 20.5613 6.93335 20.2666 6.93335H19.7334C19.4387 6.93335 19.2 7.17212 19.2 7.46655C19.2 7.76123 19.4387 8 19.7334 8Z" fill="white"/>
<path d="M22.3999 3.19995H22.9333C23.2278 3.19995 23.4666 2.96118 23.4666 2.66675C23.4666 2.37207 23.2278 2.1333 22.9333 2.1333H22.3999C22.1055 2.1333 21.8667 2.37207 21.8667 2.66675C21.8667 2.96118 22.1055 3.19995 22.3999 3.19995Z" fill="white"/>
<path d="M9.06665 8H9.6001C9.89453 8 10.1333 7.76123 10.1333 7.46655C10.1333 7.17212 9.89453 6.93335 9.6001 6.93335H9.06665C8.77222 6.93335 8.53345 7.17212 8.53345 7.46655C8.53345 7.76123 8.77222 8 9.06665 8Z" fill="white"/>
<path d="M9.06665 5.8667C9.36133 5.8667 9.6001 5.62793 9.6001 5.33325V4.80005C9.6001 4.50537 9.36133 4.2666 9.06665 4.2666C8.77222 4.2666 8.53345 4.50537 8.53345 4.80005V5.33325C8.53345 5.62793 8.77222 5.8667 9.06665 5.8667Z" fill="white"/>
<path d="M22.3999 8H22.9333C23.2278 8 23.4666 7.76123 23.4666 7.46655C23.4666 7.17212 23.2278 6.93335 22.9333 6.93335H22.3999C22.1055 6.93335 21.8667 7.17212 21.8667 7.46655C21.8667 7.76123 22.1055 8 22.3999 8Z" fill="white"/>
<path d="M22.9333 4.2666C22.6387 4.2666 22.3999 4.50537 22.3999 4.80005V5.33325C22.3999 5.62793 22.6387 5.8667 22.9333 5.8667C23.2278 5.8667 23.4666 5.62793 23.4666 5.33325V4.80005C23.4666 4.50537 23.2278 4.2666 22.9333 4.2666Z" fill="white"/>
<path d="M9.6001 13.8667H9.06665C8.77222 13.8667 8.53345 14.1055 8.53345 14.3999C8.53345 14.6946 8.77222 14.9333 9.06665 14.9333H9.6001C9.89453 14.9333 10.1333 14.6946 10.1333 14.3999C10.1333 14.1055 9.89453 13.8667 9.6001 13.8667Z" fill="white"/>
<path d="M12.2666 13.8667H11.7334C11.4387 13.8667 11.2 14.1055 11.2 14.3999C11.2 14.6946 11.4387 14.9333 11.7334 14.9333H12.2666C12.5613 14.9333 12.8 14.6946 12.8 14.3999C12.8 14.1055 12.5613 13.8667 12.2666 13.8667Z" fill="white"/>
<path d="M14.9333 13.8667H14.3999C14.1055 13.8667 13.8667 14.1055 13.8667 14.3999C13.8667 14.6946 14.1055 14.9333 14.3999 14.9333H14.9333C15.2278 14.9333 15.4666 14.6946 15.4666 14.3999C15.4666 14.1055 15.2278 13.8667 14.9333 13.8667Z" fill="white"/>
<path d="M17.6001 13.8667H17.0667C16.7722 13.8667 16.5334 14.1055 16.5334 14.3999C16.5334 14.6946 16.7722 14.9333 17.0667 14.9333H17.6001C17.8945 14.9333 18.1333 14.6946 18.1333 14.3999C18.1333 14.1055 17.8945 13.8667 17.6001 13.8667Z" fill="white"/>
<path d="M20.2666 13.8667H19.7334C19.4387 13.8667 19.2 14.1055 19.2 14.3999C19.2 14.6946 19.4387 14.9333 19.7334 14.9333H20.2666C20.5613 14.9333 20.8 14.6946 20.8 14.3999C20.8 14.1055 20.5613 13.8667 20.2666 13.8667Z" fill="white"/>
<path d="M22.9333 13.8667H22.3999C22.1055 13.8667 21.8667 14.1055 21.8667 14.3999C21.8667 14.6946 22.1055 14.9333 22.3999 14.9333H22.9333C23.2278 14.9333 23.4666 14.6946 23.4666 14.3999C23.4666 14.1055 23.2278 13.8667 22.9333 13.8667Z" fill="white"/>
</g>
<defs>
<clipPath id="clip0_136_30031">
<rect width="32" height="32" fill="white"/>
</clipPath>
</defs>
</svg>
