<svg width="32" height="32" viewBox="0 0 32 32" fill="none" xmlns="http://www.w3.org/2000/svg">
<g clip-path="url(#clip0_136_30027)">
<path d="M1.08932 32H30.9109C31.2099 32 31.4963 31.8789 31.7045 31.6646C31.9023 31.4629 32.0087 31.1893 31.9994 30.9073C31.977 28.4609 31.5012 26.0401 30.5964 23.7672C30.395 23.2958 29.9814 22.9481 29.4822 22.8312L23.3225 21.4094C22.9429 20.573 22.1817 19.9722 21.2799 19.7974L21.0363 17.8634C21.3407 17.6151 21.598 17.3139 21.7962 16.9745C22.13 16.2546 22.3243 15.4777 22.3685 14.6855C23.1866 14.5652 23.7747 13.836 23.7188 13.0108C23.7175 12.6827 23.7849 12.3578 23.917 12.0572C23.9822 11.9032 24.0669 11.7289 24.1667 11.5299C24.7863 10.3512 24.5224 9.42501 24.0674 8.95067C23.8316 8.70409 23.5203 8.54297 23.1827 8.49268C23.4146 7.70731 23.5528 6.89728 23.5945 6.07945C23.8662 5.71935 24.0986 5.33119 24.2878 4.92154C24.3896 4.70572 24.3357 4.44841 24.1555 4.29168C24.1245 4.26775 24.0735 4.22942 23.9998 4.17767C23.5115 3.84223 23.087 3.42233 22.7464 2.93773C21.7391 1.54472 20.2343 0.593344 18.5439 0.280857C17.7 0.0928759 16.8379 -0.000626077 15.9735 0.00132697C12.4914 0.00132697 10.1602 0.968084 9.04847 2.87523C7.90862 4.82828 8.40299 7.22027 8.80898 8.49439C8.47256 8.54736 8.16301 8.70971 7.9284 8.95653C7.47675 9.43234 7.21529 10.3598 7.83294 11.525C7.93377 11.7262 8.01921 11.9022 8.08366 12.0584C8.21574 12.3592 8.28532 12.6839 8.28849 13.0125C8.26456 13.4585 8.42252 13.895 8.72622 14.2227C8.9745 14.469 9.29358 14.6318 9.63878 14.6887C9.68223 15.4804 9.87461 16.2568 10.2056 16.9772C10.4036 17.3165 10.661 17.6175 10.9656 17.8656L10.7203 19.7974C9.81797 19.9717 9.05604 20.5725 8.67617 21.4094L2.51846 22.8312C2.01946 22.9481 1.60566 23.2958 1.40449 23.7672C0.499501 26.0386 0.0236907 28.4582 0.000742442 30.9029C-0.00999929 31.1863 0.0961975 31.4617 0.294676 31.6646C0.503163 31.8794 0.789773 32.0003 1.08932 32ZM5.33378 23.276L7.46723 22.7838V27.6955C7.46479 28.5448 7.80243 29.3597 8.4047 29.9584L9.37951 30.9334H5.33378V23.276ZM9.15882 29.2042C8.75722 28.8051 8.53213 28.2619 8.53384 27.6955V22.5375L8.89003 22.4552L10.5626 24.2152C10.293 24.4156 10.1341 24.7313 10.1336 25.0669V27.2002C10.1336 27.7893 10.6111 28.2668 11.2002 28.2668H13.3334C13.8996 28.268 14.4425 28.0429 14.8412 27.6413C14.9125 27.5666 14.9782 27.487 15.0375 27.4028C15.1669 27.5017 15.3109 27.58 15.4642 27.6354V30.9361H10.8887L9.15882 29.2042ZM16.0001 23.4669C16.6292 23.5009 17.2156 23.795 17.6187 24.2791C17.3604 24.4242 17.1358 24.6226 16.96 24.8611C16.3948 24.4234 15.6053 24.4234 15.0402 24.8611C14.8641 24.6224 14.6391 24.4242 14.3805 24.2791C14.7838 23.7948 15.3707 23.5006 16.0001 23.4669ZM23.1101 22.4538L23.4666 22.5358V27.694C23.468 28.2602 23.243 28.8034 22.8414 29.2028L21.1107 30.9334H16.5335V27.6354C16.6866 27.58 16.8306 27.5017 16.96 27.4028C17.0196 27.487 17.085 27.5666 17.1563 27.6413C17.5557 28.0434 18.0999 28.2687 18.6667 28.2668H20.7999C21.389 28.2668 21.8665 27.7893 21.8665 27.2002V25.0669C21.8658 24.7325 21.7079 24.4176 21.4398 24.2174L23.1101 22.4538ZM22.6207 30.9334L23.5955 29.9584C24.1977 29.3597 24.5354 28.5448 24.5332 27.6955V22.7838L26.6664 23.276V30.9334H22.6207ZM16.0001 26.6667C15.7057 26.6667 15.4669 26.428 15.4669 26.1336C15.4669 25.8389 15.7057 25.6001 16.0001 25.6001C16.2948 25.6001 16.5335 25.8389 16.5335 26.1336C16.5335 26.428 16.2948 26.6667 16.0001 26.6667ZM20.632 25.0669H20.7999V27.2002H18.6667C18.1597 27.1953 17.7263 26.834 17.6299 26.3364C17.5335 25.8386 17.8008 25.3418 18.2693 25.148C18.3855 25.3394 18.4827 25.5245 18.5664 25.6878C18.6802 25.9209 18.9008 26.084 19.1572 26.124C19.1972 26.1304 19.2375 26.1336 19.2778 26.1336C19.496 26.1328 19.7045 26.0432 19.8554 25.8855L20.632 25.0669ZM13.4323 25.6888C13.5134 25.5257 13.613 25.3399 13.7297 25.148C14.1982 25.3416 14.4655 25.8382 14.3693 26.3359C14.2734 26.8335 13.8403 27.1948 13.3334 27.2002H11.2002V25.0669H11.3682L12.148 25.8887C12.2983 26.0447 12.5056 26.1331 12.7224 26.1336C12.7627 26.1336 12.803 26.1304 12.843 26.124C13.0991 26.084 13.3195 25.9217 13.4338 25.6888H13.4323ZM29.6155 24.1869C30.4626 26.3357 30.9018 28.6237 30.9109 30.9334H27.733V23.5204L29.2422 23.8685C29.4109 23.9078 29.5503 24.0265 29.6155 24.1869ZM22.3055 21.7534L19.3444 24.8748C19.0141 24.2538 18.5754 23.6964 18.0491 23.2296C19.4008 22.9774 20.5529 22.0991 21.1539 20.8623C21.6466 20.9831 22.0648 21.3071 22.3055 21.7534ZM10.0138 3.33932C10.9427 1.83206 12.9475 1.06793 15.9735 1.06793C16.7593 1.06598 17.5432 1.15118 18.3103 1.32183C19.7338 1.57548 21.0055 2.36671 21.8617 3.5317C22.2091 4.03681 22.6346 4.48332 23.1224 4.8544C22.9891 5.09926 22.8331 5.33143 22.6568 5.54773C20.6095 8.08205 16.9734 6.5472 13.3437 4.50822C12.9768 4.31829 12.5498 4.27996 12.155 4.40154C11.9944 4.4511 11.8369 4.51042 11.6834 4.57926C11.637 4.59953 11.5938 4.62248 11.5491 4.6442C11.4473 4.69449 11.3487 4.74674 11.2547 4.80435C11.211 4.83047 11.1673 4.85757 11.125 4.88492C11.0286 4.94839 10.9373 5.01553 10.8499 5.08535C10.8216 5.10781 10.7918 5.12856 10.7652 5.15102C10.6558 5.2433 10.5516 5.34144 10.4532 5.44544C10.4312 5.46888 10.4114 5.49329 10.3902 5.51721C10.3165 5.599 10.2462 5.682 10.1805 5.76794C10.1532 5.80358 10.1265 5.83898 10.1007 5.87462C10.044 5.95348 9.99081 6.03404 9.94052 6.11558C9.91928 6.14976 9.89731 6.18393 9.87705 6.21811C9.81357 6.3248 9.75449 6.43148 9.70127 6.54329L9.69053 6.56307C9.63389 6.6805 9.58385 6.79792 9.53697 6.91462C9.53258 6.92414 9.52794 6.9339 9.52403 6.94343C9.25061 5.72204 9.42418 4.44328 10.0138 3.33932ZM10.6829 14.1975C10.6829 13.9029 10.4442 13.6641 10.1497 13.6641C9.91464 13.6844 9.68028 13.617 9.49156 13.4754C9.3905 13.3504 9.34142 13.1912 9.3551 13.0311C9.35485 12.5543 9.2572 12.0824 9.068 11.6446C8.995 11.4696 8.89955 11.2711 8.78115 11.036C8.42276 10.3598 8.50552 9.8974 8.7018 9.69038C8.79701 9.59127 8.92958 9.53634 9.06702 9.53902C9.16541 9.54073 9.26233 9.56173 9.35241 9.60079C9.36315 9.60469 9.37389 9.60787 9.38488 9.61055C9.43444 9.63399 9.48742 9.64961 9.54161 9.65694C9.56114 9.66158 9.58067 9.66499 9.60045 9.66743H9.61485C9.90927 9.66743 10.148 9.42867 10.148 9.13425C10.148 9.01097 10.1746 6.11363 12.4573 5.42249C12.5779 5.38148 12.7095 5.38758 12.8259 5.43958L13.2146 5.6571L13.2824 5.69494C13.4179 5.77013 13.559 5.84801 13.7053 5.92687L13.788 5.97179C13.9384 6.05284 14.0934 6.13511 14.2536 6.2186L14.3149 6.25009C14.486 6.33871 14.661 6.42709 14.8412 6.51669C15.0292 6.60848 15.2218 6.69905 15.4188 6.78816L15.4354 6.79621C15.6251 6.8819 15.8187 6.96515 16.0155 7.04645L16.0658 7.0672C16.2601 7.1463 16.4576 7.22222 16.6578 7.29473L16.7029 7.31133C17.3262 7.53959 17.9688 7.71146 18.623 7.82449L18.6528 7.82913C18.8618 7.86307 19.0703 7.88797 19.2783 7.90432L19.3227 7.90774C19.5312 7.92263 19.7392 7.92898 19.945 7.92361H19.9643C20.3803 7.91409 20.7938 7.85403 21.1957 7.74491L21.225 7.73758C21.4161 7.68265 21.6034 7.61503 21.7855 7.53495L21.8426 7.50981C22.0252 7.4268 22.202 7.33086 22.3709 7.22295C22.3775 7.21905 22.3839 7.21636 22.3902 7.21221C22.2916 7.77469 22.1361 8.32545 21.9256 8.85643C21.7987 9.05833 21.8214 9.32028 21.9813 9.49752C22.1409 9.67451 22.3992 9.72407 22.6131 9.61861C22.8314 9.48751 23.1099 9.51632 23.2969 9.68892C23.4947 9.89521 23.5784 10.3576 23.2195 11.037L23.2141 11.0473C23.1016 11.2728 23.0061 11.4701 22.9322 11.6471C22.7425 12.0846 22.6468 12.557 22.6517 13.0338C22.6619 13.1951 22.6109 13.3545 22.5086 13.4798C22.3214 13.6192 22.0897 13.6853 21.857 13.6658C21.5624 13.6658 21.3236 13.9046 21.3236 14.199C21.3219 14.9836 21.162 15.7595 20.8532 16.4806C20.6117 16.9398 19.7558 17.5909 18.6277 18.1766C18.4363 18.2699 18.2671 18.4032 18.1318 18.5675C17.616 19.2376 16.8426 19.6607 16.0001 19.7339C15.1617 19.6607 14.3922 19.24 13.8781 18.5738C13.7431 18.4078 13.5739 18.2726 13.382 18.1776C12.2466 17.5883 11.3907 16.9372 11.1502 16.4797C10.8472 15.7565 10.6885 14.9814 10.6829 14.1975ZM12.8979 19.128C12.958 19.1568 13.011 19.1985 13.0529 19.25C13.7695 20.1633 14.8417 20.7273 16.0001 20.8005C17.1626 20.7263 18.238 20.1587 18.9553 19.2405C18.9978 19.191 19.0505 19.1514 19.1098 19.1243C19.3764 18.9871 19.7077 18.8006 20.05 18.5845L20.2575 20.231C20.1354 20.625 19.3947 22.4003 16.0001 22.4003C12.5964 22.4003 11.8606 20.6147 11.7427 20.2319L11.9502 18.5841C12.2947 18.8016 12.6301 18.9871 12.8979 19.128ZM10.8462 20.8628C11.4475 22.0995 12.5998 22.9777 13.9516 23.2296C13.425 23.6964 12.9863 24.2538 12.6557 24.8748L9.69468 21.7534C9.93564 21.3073 10.3538 20.9839 10.8462 20.8628ZM2.38468 24.1869C2.45059 24.0272 2.58975 23.9095 2.75795 23.8707L4.26717 23.5204V30.938H1.06735C1.09054 28.6261 1.53706 26.3381 2.38468 24.1869Z" fill="white"/>
</g>
<defs>
<clipPath id="clip0_136_30027">
<rect width="32" height="32" fill="white"/>
</clipPath>
</defs>
</svg>
