<svg width="32" height="32" viewBox="0 0 32 32" fill="none" xmlns="http://www.w3.org/2000/svg">
<g clip-path="url(#clip0_136_30020)">
<path d="M30.7776 19.4331C30.3464 19.3093 29.8835 19.363 29.4922 19.5825L28.6289 20.0706L28.6011 20.0427C27.8657 19.3125 26.7754 19.072 25.801 19.4251L21.448 21.0711L11.208 19.3223C10.3118 19.1804 9.39429 19.2686 8.54126 19.5781L6.36157 20.5191C6.20044 19.7857 5.55078 19.263 4.80005 19.2625H1.6001C0.716309 19.2625 0 19.9788 0 20.8626V28.3291C0 29.2129 0.716309 29.9292 1.6001 29.9292H4.80005C5.64111 29.9255 6.33569 29.2715 6.38989 28.4321C6.49805 28.429 6.6062 28.4431 6.70996 28.4741L17.5732 31.9495C18.4031 32.1973 19.3015 32.0288 19.9851 31.4971L31.3601 22.3794C31.7629 22.0574 31.9983 21.5703 32 21.0545C31.9983 20.7676 31.925 20.4856 31.7866 20.2341C31.5701 19.8438 31.207 19.5557 30.7776 19.4331ZM18.3467 25.6043L16.7222 24.596H20.6208L18.8501 25.5964C18.6941 25.6831 18.5054 25.686 18.3467 25.6043ZM26.1716 20.4251C26.666 20.2468 27.2163 20.322 27.6448 20.6262L23.9114 22.7366C23.8994 22.6279 23.8765 22.5208 23.8433 22.4168C23.8335 22.3858 23.8213 22.3557 23.8101 22.3255C23.7834 22.2522 23.7515 22.1809 23.7146 22.1121C23.6987 22.0823 23.6831 22.053 23.665 22.0242C23.6189 21.949 23.5664 21.8777 23.5088 21.8108C23.4966 21.7969 23.4868 21.781 23.4741 21.7676C23.4019 21.6892 23.322 21.6177 23.2363 21.5542C23.23 21.5501 23.2251 21.5435 23.2188 21.5388L26.1716 20.4251ZM5.33325 28.3291C5.33325 28.6238 5.09448 28.8626 4.80005 28.8626H1.6001C1.30542 28.8626 1.06665 28.6238 1.06665 28.3291V20.8626C1.06665 20.5679 1.30542 20.3291 1.6001 20.3291H4.80005C5.09448 20.3291 5.33325 20.5679 5.33325 20.8626V21.2805C5.33325 21.293 5.32788 21.3042 5.32788 21.3164L5.33325 27.9937V28.3291ZM30.6956 21.5447L19.3259 30.6599C18.9182 30.9744 18.3848 31.0752 17.8906 30.9307L7.03369 27.4578C6.83301 27.3953 6.62427 27.3638 6.41431 27.3638H6.3999V21.6626L8.93237 20.5681C9.60596 20.3274 10.3293 20.2603 11.0356 20.3728L21.4038 22.1436C21.416 22.1458 21.4285 22.1475 21.4412 22.1484L22.3301 22.2993C22.6294 22.3486 22.8499 22.6057 22.8533 22.9089C22.855 23.0713 22.7917 23.2276 22.678 23.343C22.5603 23.4609 22.4011 23.5278 22.2346 23.5291H12.72C12.4255 23.5291 12.1868 23.7681 12.1868 24.0625C12.1868 24.3569 12.4255 24.596 12.72 24.596H14.7007L17.8047 26.5232C17.9258 26.5906 18.0549 26.6423 18.1887 26.6775C18.2788 26.6975 18.3704 26.7095 18.4624 26.7131C18.5051 26.7168 18.5471 26.7297 18.5903 26.7297H18.593C18.6951 26.7266 18.7964 26.7136 18.896 26.6914C18.9275 26.6848 18.9595 26.687 18.9905 26.679C19.1235 26.6448 19.2517 26.5935 19.3718 26.5266L28.8 21.199L28.8032 21.1963L30.0134 20.5122C30.3113 20.3472 30.6863 20.4531 30.8538 20.7495C30.9053 20.843 30.9326 20.9478 30.9333 21.0545C30.9329 21.2456 30.8452 21.426 30.6956 21.5447Z" fill="white"/>
<path d="M12.2666 17.1292H25.0667C25.9504 17.1292 26.6667 16.4128 26.6667 15.5291V14.4624C26.666 14.2583 26.6262 14.0564 26.5493 13.8672C27.2454 13.6799 27.7302 13.05 27.7334 12.3291V11.2625C27.7302 10.5415 27.2454 9.91187 26.5493 9.72437C26.6262 9.5354 26.666 9.33325 26.6667 9.12915V8.0625C26.666 7.8584 26.6262 7.65625 26.5493 7.46729C27.2454 7.27979 27.7302 6.65015 27.7334 5.9292V4.86255C27.7302 4.1416 27.2454 3.51172 26.5493 3.32446C26.6262 3.13525 26.666 2.93335 26.6667 2.72925V1.6626C26.6667 0.778809 25.9504 0.0625 25.0667 0.0625H12.2666C11.3831 0.0625 10.6667 0.778809 10.6667 1.6626V2.72925C10.6697 3.44995 11.1545 4.07983 11.8506 4.26733C11.7737 4.4563 11.7339 4.65845 11.7334 4.86255V5.9292C11.7339 6.1333 11.7737 6.33521 11.8506 6.52441C11.1545 6.71191 10.6697 7.34155 10.6667 8.0625V9.12915C10.6697 9.8501 11.1545 10.48 11.8506 10.6672C11.7737 10.8564 11.7339 11.0583 11.7334 11.2625V12.3291C11.7339 12.5332 11.7737 12.7354 11.8506 12.9243C11.1545 13.1118 10.6697 13.7417 10.6667 14.4624V15.5291C10.6667 16.4128 11.3831 17.1292 12.2666 17.1292ZM14.9333 16.0625V13.9292H16V16.0625H14.9333ZM12.8 12.3291V11.2625C12.8 10.968 13.0388 10.7292 13.3333 10.7292H14.9333V12.8625H13.3333C13.0388 12.8625 12.8 12.6238 12.8 12.3291ZM12.8 5.9292V4.86255C12.8 4.56787 13.0388 4.3291 13.3333 4.3291H14.9333V6.4624H13.3333C13.0388 6.4624 12.8 6.22363 12.8 5.9292ZM23.4666 4.3291V6.4624H22.3999V4.3291H23.4666ZM25.6001 8.0625V9.12915C25.6001 9.42383 25.3613 9.6626 25.0667 9.6626H23.4666V7.52905H25.0667C25.3613 7.52905 25.6001 7.76807 25.6001 8.0625ZM23.4666 12.8625H22.3999V10.7292H23.4666V12.8625ZM20.8 12.8625H18.1333V10.7292H21.3333V12.8625H20.8ZM16 10.7292H17.0667V12.8625H16V10.7292ZM17.6001 7.52905H20.2666V9.6626H17.0667V7.52905H17.6001ZM21.8667 7.52905H22.3999V9.6626H21.3333V7.52905H21.8667ZM17.6001 13.9292H20.2666V16.0625H17.0667V13.9292H17.6001ZM21.3333 6.4624H18.1333V4.3291H21.3333V6.4624ZM17.6001 3.26245H17.0667V1.12915H20.2666V3.26245H17.6001ZM17.0667 4.3291V6.4624H16V4.3291H17.0667ZM14.9333 7.52905H16V9.6626H14.9333V7.52905ZM21.3333 16.0625V13.9292H22.3999V16.0625H21.3333ZM25.6001 15.5291C25.6001 15.8237 25.3613 16.0625 25.0667 16.0625H23.4666V13.9292H25.0667C25.3613 13.9292 25.6001 14.168 25.6001 14.4624V15.5291ZM26.6667 12.3291C26.6667 12.6238 26.428 12.8625 26.1333 12.8625H24.5334V10.7292H26.1333C26.428 10.7292 26.6667 10.968 26.6667 11.2625V12.3291ZM26.6667 5.9292C26.6667 6.22363 26.428 6.4624 26.1333 6.4624H24.5334V4.3291H26.1333C26.428 4.3291 26.6667 4.56787 26.6667 4.86255V5.9292ZM25.6001 1.6626V2.72925C25.6001 3.02368 25.3613 3.26245 25.0667 3.26245H23.4666V1.12915H25.0667C25.3613 1.12915 25.6001 1.36792 25.6001 1.6626ZM22.3999 1.12915V3.26245H21.3333V1.12915H22.3999ZM16 1.12915V3.26245H14.9333V1.12915H16ZM11.7334 1.6626C11.7334 1.36792 11.9722 1.12915 12.2666 1.12915H13.8667V3.26245H12.2666C11.9722 3.26245 11.7334 3.02368 11.7334 2.72925V1.6626ZM11.7334 8.0625C11.7334 7.76807 11.9722 7.52905 12.2666 7.52905H13.8667V9.6626H12.2666C11.9722 9.6626 11.7334 9.42383 11.7334 9.12915V8.0625ZM11.7334 14.4624C11.7334 14.168 11.9722 13.9292 12.2666 13.9292H13.8667V16.0625H12.2666C11.9722 16.0625 11.7334 15.8237 11.7334 15.5291V14.4624Z" fill="white"/>
<path d="M3.7334 21.3958H2.66675C2.37207 21.3958 2.1333 21.6345 2.1333 21.9292C2.1333 22.2236 2.37207 22.4624 2.66675 22.4624H3.7334C4.02783 22.4624 4.2666 22.2236 4.2666 21.9292C4.2666 21.6345 4.02783 21.3958 3.7334 21.3958Z" fill="white"/>
<path d="M3.7334 26.7292H2.66675C2.37207 26.7292 2.1333 26.968 2.1333 27.2625C2.1333 27.5571 2.37207 27.7959 2.66675 27.7959H3.7334C4.02783 27.7959 4.2666 27.5571 4.2666 27.2625C4.2666 26.968 4.02783 26.7292 3.7334 26.7292Z" fill="white"/>
</g>
<defs>
<clipPath id="clip0_136_30020">
<rect width="32" height="32" fill="white"/>
</clipPath>
</defs>
</svg>
